<?xml version="1.0" encoding="UTF-8"?>
<svg xmlns="http://www.w3.org/2000/svg" xmlns:xlink="http://www.w3.org/1999/xlink" width="16" height="16" viewBox="0 0 3872.97 3872.97">
  <defs>
    <clipPath id="clip-0">
      <path clip-rule="nonzero" d="M 0 0 L 3872.96875 0 L 3872.96875 3872.96875 L 0 3872.96875 Z M 0 0 "/>
    </clipPath>
    <clipPath id="clip-1">
      <path clip-rule="evenodd" d="M 859.636719 0 L 3013.328125 0 C 3486.121094 0 3872.96875 386.839844 3872.96875 859.628906 L 3872.96875 3013.328125 C 3872.96875 3486.121094 3486.121094 3872.96875 3013.328125 3872.96875 L 859.636719 3872.96875 C 386.839844 3872.96875 0 3486.121094 0 3013.328125 L 0 859.628906 C 0 386.839844 386.839844 0 859.636719 0 "/>
    </clipPath>
    <linearGradient id="linear-pattern-0" gradientUnits="userSpaceOnUse" x1="0" y1="0" x2="1" y2="0" gradientTransform="matrix(3872.97, 0, 0, 3872.97, 0, 1936.49)">
      <stop offset="0" stop-color="rgb(0%, 16.470337%, 22.3526%)" stop-opacity="1"/>
      <stop offset="0.0078125" stop-color="rgb(0%, 16.610718%, 22.494507%)" stop-opacity="1"/>
      <stop offset="0.015625" stop-color="rgb(0%, 16.891479%, 22.77832%)" stop-opacity="1"/>
      <stop offset="0.0234375" stop-color="rgb(0%, 17.173767%, 23.06366%)" stop-opacity="1"/>
      <stop offset="0.03125" stop-color="rgb(0%, 17.456055%, 23.348999%)" stop-opacity="1"/>
      <stop offset="0.0390625" stop-color="rgb(0%, 17.738342%, 23.634338%)" stop-opacity="1"/>
      <stop offset="0.046875" stop-color="rgb(0%, 18.019104%, 23.918152%)" stop-opacity="1"/>
      <stop offset="0.0546875" stop-color="rgb(0%, 18.301392%, 24.203491%)" stop-opacity="1"/>
      <stop offset="0.0625" stop-color="rgb(0%, 18.583679%, 24.488831%)" stop-opacity="1"/>
      <stop offset="0.0703125" stop-color="rgb(0%, 18.864441%, 24.77417%)" stop-opacity="1"/>
      <stop offset="0.078125" stop-color="rgb(0%, 19.146729%, 25.057983%)" stop-opacity="1"/>
      <stop offset="0.0859375" stop-color="rgb(0%, 19.429016%, 25.343323%)" stop-opacity="1"/>
      <stop offset="0.09375" stop-color="rgb(0%, 19.711304%, 25.628662%)" stop-opacity="1"/>
      <stop offset="0.101562" stop-color="rgb(0%, 19.992065%, 25.912476%)" stop-opacity="1"/>
      <stop offset="0.109375" stop-color="rgb(0%, 20.274353%, 26.197815%)" stop-opacity="1"/>
      <stop offset="0.117188" stop-color="rgb(0%, 20.556641%, 26.483154%)" stop-opacity="1"/>
      <stop offset="0.125" stop-color="rgb(0%, 20.837402%, 26.768494%)" stop-opacity="1"/>
      <stop offset="0.132812" stop-color="rgb(0%, 21.11969%, 27.052307%)" stop-opacity="1"/>
      <stop offset="0.140625" stop-color="rgb(0%, 21.401978%, 27.337646%)" stop-opacity="1"/>
      <stop offset="0.148437" stop-color="rgb(0%, 21.684265%, 27.622986%)" stop-opacity="1"/>
      <stop offset="0.15625" stop-color="rgb(0%, 21.965027%, 27.908325%)" stop-opacity="1"/>
      <stop offset="0.164062" stop-color="rgb(0%, 22.247314%, 28.192139%)" stop-opacity="1"/>
      <stop offset="0.171875" stop-color="rgb(0%, 22.529602%, 28.477478%)" stop-opacity="1"/>
      <stop offset="0.179687" stop-color="rgb(0%, 22.81189%, 28.762817%)" stop-opacity="1"/>
      <stop offset="0.1875" stop-color="rgb(0%, 23.092651%, 29.046631%)" stop-opacity="1"/>
      <stop offset="0.195312" stop-color="rgb(0%, 23.374939%, 29.33197%)" stop-opacity="1"/>
      <stop offset="0.203125" stop-color="rgb(0%, 23.657227%, 29.61731%)" stop-opacity="1"/>
      <stop offset="0.210938" stop-color="rgb(0%, 23.937988%, 29.902649%)" stop-opacity="1"/>
      <stop offset="0.21875" stop-color="rgb(0%, 24.220276%, 30.186462%)" stop-opacity="1"/>
      <stop offset="0.226562" stop-color="rgb(0%, 24.502563%, 30.471802%)" stop-opacity="1"/>
      <stop offset="0.234375" stop-color="rgb(0%, 24.784851%, 30.757141%)" stop-opacity="1"/>
      <stop offset="0.242188" stop-color="rgb(0%, 25.065613%, 31.04248%)" stop-opacity="1"/>
      <stop offset="0.25" stop-color="rgb(0%, 25.3479%, 31.326294%)" stop-opacity="1"/>
      <stop offset="0.257812" stop-color="rgb(0%, 25.630188%, 31.611633%)" stop-opacity="1"/>
      <stop offset="0.265625" stop-color="rgb(0%, 25.91095%, 31.896973%)" stop-opacity="1"/>
      <stop offset="0.273437" stop-color="rgb(0%, 26.193237%, 32.180786%)" stop-opacity="1"/>
      <stop offset="0.28125" stop-color="rgb(0%, 26.475525%, 32.466125%)" stop-opacity="1"/>
      <stop offset="0.289062" stop-color="rgb(0%, 26.757812%, 32.751465%)" stop-opacity="1"/>
      <stop offset="0.296875" stop-color="rgb(0%, 27.038574%, 33.036804%)" stop-opacity="1"/>
      <stop offset="0.304687" stop-color="rgb(0%, 27.320862%, 33.320618%)" stop-opacity="1"/>
      <stop offset="0.3125" stop-color="rgb(0%, 27.603149%, 33.605957%)" stop-opacity="1"/>
      <stop offset="0.320312" stop-color="rgb(0%, 27.885437%, 33.891296%)" stop-opacity="1"/>
      <stop offset="0.328125" stop-color="rgb(0%, 28.166199%, 34.176636%)" stop-opacity="1"/>
      <stop offset="0.335937" stop-color="rgb(0%, 28.448486%, 34.460449%)" stop-opacity="1"/>
      <stop offset="0.34375" stop-color="rgb(0%, 28.730774%, 34.745789%)" stop-opacity="1"/>
      <stop offset="0.351562" stop-color="rgb(0%, 29.011536%, 35.031128%)" stop-opacity="1"/>
      <stop offset="0.359375" stop-color="rgb(0%, 29.293823%, 35.316467%)" stop-opacity="1"/>
      <stop offset="0.367187" stop-color="rgb(0%, 29.576111%, 35.600281%)" stop-opacity="1"/>
      <stop offset="0.375" stop-color="rgb(0%, 29.858398%, 35.88562%)" stop-opacity="1"/>
      <stop offset="0.382812" stop-color="rgb(0%, 30.13916%, 36.170959%)" stop-opacity="1"/>
      <stop offset="0.390625" stop-color="rgb(0%, 30.421448%, 36.454773%)" stop-opacity="1"/>
      <stop offset="0.398438" stop-color="rgb(0%, 30.703735%, 36.740112%)" stop-opacity="1"/>
      <stop offset="0.40625" stop-color="rgb(0%, 30.984497%, 37.025452%)" stop-opacity="1"/>
      <stop offset="0.414062" stop-color="rgb(0%, 31.266785%, 37.310791%)" stop-opacity="1"/>
      <stop offset="0.421875" stop-color="rgb(0%, 31.549072%, 37.594604%)" stop-opacity="1"/>
      <stop offset="0.429688" stop-color="rgb(0%, 31.83136%, 37.879944%)" stop-opacity="1"/>
      <stop offset="0.4375" stop-color="rgb(0%, 32.112122%, 38.165283%)" stop-opacity="1"/>
      <stop offset="0.445312" stop-color="rgb(0%, 32.394409%, 38.450623%)" stop-opacity="1"/>
      <stop offset="0.453125" stop-color="rgb(0%, 32.676697%, 38.734436%)" stop-opacity="1"/>
      <stop offset="0.460938" stop-color="rgb(0%, 32.958984%, 39.019775%)" stop-opacity="1"/>
      <stop offset="0.46875" stop-color="rgb(0%, 33.239746%, 39.305115%)" stop-opacity="1"/>
      <stop offset="0.476562" stop-color="rgb(0%, 33.522034%, 39.588928%)" stop-opacity="1"/>
      <stop offset="0.484375" stop-color="rgb(0%, 33.804321%, 39.874268%)" stop-opacity="1"/>
      <stop offset="0.492188" stop-color="rgb(0%, 34.085083%, 40.159607%)" stop-opacity="1"/>
      <stop offset="0.5" stop-color="rgb(0%, 34.367371%, 40.444946%)" stop-opacity="1"/>
      <stop offset="0.507812" stop-color="rgb(0%, 34.649658%, 40.72876%)" stop-opacity="1"/>
      <stop offset="0.515625" stop-color="rgb(0%, 34.931946%, 41.014099%)" stop-opacity="1"/>
      <stop offset="0.523437" stop-color="rgb(0%, 35.212708%, 41.299438%)" stop-opacity="1"/>
      <stop offset="0.53125" stop-color="rgb(0%, 35.494995%, 41.584778%)" stop-opacity="1"/>
      <stop offset="0.539062" stop-color="rgb(0%, 35.777283%, 41.868591%)" stop-opacity="1"/>
      <stop offset="0.546875" stop-color="rgb(0%, 36.058044%, 42.153931%)" stop-opacity="1"/>
      <stop offset="0.554687" stop-color="rgb(0%, 36.340332%, 42.43927%)" stop-opacity="1"/>
      <stop offset="0.5625" stop-color="rgb(0%, 36.62262%, 42.723083%)" stop-opacity="1"/>
      <stop offset="0.570312" stop-color="rgb(0%, 36.904907%, 43.008423%)" stop-opacity="1"/>
      <stop offset="0.578125" stop-color="rgb(0%, 37.185669%, 43.293762%)" stop-opacity="1"/>
      <stop offset="0.585937" stop-color="rgb(0%, 37.467957%, 43.579102%)" stop-opacity="1"/>
      <stop offset="0.59375" stop-color="rgb(0%, 37.750244%, 43.862915%)" stop-opacity="1"/>
      <stop offset="0.601562" stop-color="rgb(0%, 38.031006%, 44.148254%)" stop-opacity="1"/>
      <stop offset="0.609375" stop-color="rgb(0%, 38.313293%, 44.433594%)" stop-opacity="1"/>
      <stop offset="0.617187" stop-color="rgb(0%, 38.595581%, 44.718933%)" stop-opacity="1"/>
      <stop offset="0.625" stop-color="rgb(0%, 38.877869%, 45.002747%)" stop-opacity="1"/>
      <stop offset="0.632812" stop-color="rgb(0%, 39.15863%, 45.288086%)" stop-opacity="1"/>
      <stop offset="0.640625" stop-color="rgb(0%, 39.440918%, 45.573425%)" stop-opacity="1"/>
      <stop offset="0.648437" stop-color="rgb(0%, 39.723206%, 45.858765%)" stop-opacity="1"/>
      <stop offset="0.65625" stop-color="rgb(0%, 40.005493%, 46.142578%)" stop-opacity="1"/>
      <stop offset="0.664062" stop-color="rgb(0%, 40.286255%, 46.427917%)" stop-opacity="1"/>
      <stop offset="0.671875" stop-color="rgb(0%, 40.568542%, 46.713257%)" stop-opacity="1"/>
      <stop offset="0.679687" stop-color="rgb(0%, 40.85083%, 46.99707%)" stop-opacity="1"/>
      <stop offset="0.6875" stop-color="rgb(0%, 41.131592%, 47.28241%)" stop-opacity="1"/>
      <stop offset="0.695312" stop-color="rgb(0%, 41.413879%, 47.567749%)" stop-opacity="1"/>
      <stop offset="0.703125" stop-color="rgb(0%, 41.696167%, 47.853088%)" stop-opacity="1"/>
      <stop offset="0.710937" stop-color="rgb(0%, 41.978455%, 48.136902%)" stop-opacity="1"/>
      <stop offset="0.71875" stop-color="rgb(0%, 42.259216%, 48.422241%)" stop-opacity="1"/>
      <stop offset="0.726562" stop-color="rgb(0%, 42.541504%, 48.707581%)" stop-opacity="1"/>
      <stop offset="0.734375" stop-color="rgb(0%, 42.823792%, 48.99292%)" stop-opacity="1"/>
      <stop offset="0.742187" stop-color="rgb(0%, 43.104553%, 49.276733%)" stop-opacity="1"/>
      <stop offset="0.75" stop-color="rgb(0%, 43.386841%, 49.562073%)" stop-opacity="1"/>
      <stop offset="0.757812" stop-color="rgb(0%, 43.669128%, 49.847412%)" stop-opacity="1"/>
      <stop offset="0.765625" stop-color="rgb(0%, 43.951416%, 50.131226%)" stop-opacity="1"/>
      <stop offset="0.773438" stop-color="rgb(0%, 44.232178%, 50.416565%)" stop-opacity="1"/>
      <stop offset="0.78125" stop-color="rgb(0%, 44.514465%, 50.701904%)" stop-opacity="1"/>
      <stop offset="0.789062" stop-color="rgb(0%, 44.796753%, 50.987244%)" stop-opacity="1"/>
      <stop offset="0.796875" stop-color="rgb(0%, 45.079041%, 51.271057%)" stop-opacity="1"/>
      <stop offset="0.804688" stop-color="rgb(0%, 45.359802%, 51.556396%)" stop-opacity="1"/>
      <stop offset="0.8125" stop-color="rgb(0%, 45.64209%, 51.841736%)" stop-opacity="1"/>
      <stop offset="0.820312" stop-color="rgb(0%, 45.924377%, 52.127075%)" stop-opacity="1"/>
      <stop offset="0.828125" stop-color="rgb(0%, 46.205139%, 52.410889%)" stop-opacity="1"/>
      <stop offset="0.835938" stop-color="rgb(0%, 46.487427%, 52.696228%)" stop-opacity="1"/>
      <stop offset="0.84375" stop-color="rgb(0%, 46.769714%, 52.981567%)" stop-opacity="1"/>
      <stop offset="0.851562" stop-color="rgb(0%, 47.052002%, 53.265381%)" stop-opacity="1"/>
      <stop offset="0.859375" stop-color="rgb(0%, 47.332764%, 53.55072%)" stop-opacity="1"/>
      <stop offset="0.867188" stop-color="rgb(0%, 47.615051%, 53.83606%)" stop-opacity="1"/>
      <stop offset="0.875" stop-color="rgb(0%, 47.897339%, 54.121399%)" stop-opacity="1"/>
      <stop offset="0.882812" stop-color="rgb(0%, 48.178101%, 54.405212%)" stop-opacity="1"/>
      <stop offset="0.890625" stop-color="rgb(0%, 48.460388%, 54.690552%)" stop-opacity="1"/>
      <stop offset="0.898438" stop-color="rgb(0%, 48.742676%, 54.975891%)" stop-opacity="1"/>
      <stop offset="0.90625" stop-color="rgb(0%, 49.024963%, 55.26123%)" stop-opacity="1"/>
      <stop offset="0.914062" stop-color="rgb(0%, 49.305725%, 55.545044%)" stop-opacity="1"/>
      <stop offset="0.921875" stop-color="rgb(0%, 49.588013%, 55.830383%)" stop-opacity="1"/>
      <stop offset="0.929688" stop-color="rgb(0%, 49.8703%, 56.115723%)" stop-opacity="1"/>
      <stop offset="0.9375" stop-color="rgb(0%, 50.152588%, 56.401062%)" stop-opacity="1"/>
      <stop offset="0.945312" stop-color="rgb(0%, 50.43335%, 56.684875%)" stop-opacity="1"/>
      <stop offset="0.953125" stop-color="rgb(0%, 50.715637%, 56.970215%)" stop-opacity="1"/>
      <stop offset="0.960938" stop-color="rgb(0%, 50.997925%, 57.255554%)" stop-opacity="1"/>
      <stop offset="0.96875" stop-color="rgb(0%, 51.278687%, 57.539368%)" stop-opacity="1"/>
      <stop offset="0.976562" stop-color="rgb(0%, 51.560974%, 57.824707%)" stop-opacity="1"/>
      <stop offset="0.984375" stop-color="rgb(0%, 51.843262%, 58.110046%)" stop-opacity="1"/>
      <stop offset="0.992188" stop-color="rgb(0%, 52.125549%, 58.395386%)" stop-opacity="1"/>
      <stop offset="1" stop-color="rgb(0%, 52.406311%, 58.679199%)" stop-opacity="1"/>
    </linearGradient>
    <clipPath id="clip-2">
      <path clip-rule="nonzero" d="M 840 697 L 3033 697 L 3033 3176 L 840 3176 Z M 840 697 "/>
    </clipPath>
    <clipPath id="clip-3">
      <path clip-rule="evenodd" d="M 1580.539062 2116.941406 C 1428.839844 2116.941406 1305.421875 2240.359375 1305.421875 2392.078125 C 1305.421875 2543.78125 1428.839844 2667.21875 1580.539062 2667.21875 C 1732.230469 2667.21875 1855.660156 2543.78125 1855.660156 2392.078125 C 1855.660156 2240.359375 1732.230469 2116.941406 1580.539062 2116.941406 Z M 1627.148438 2566.949219 C 1659.070312 2566.949219 1685.03125 2540.988281 1685.058594 2509.070312 L 1685.058594 2415.839844 C 1685.058594 2383.910156 1659.070312 2357.960938 1627.148438 2357.960938 L 1544.25 2357.941406 L 1544.25 2285.390625 L 1579.21875 2285.390625 L 1580.539062 2285.410156 L 1581.859375 2285.390625 L 1618.398438 2285.390625 C 1622.789062 2299.179688 1635.699219 2309.171875 1650.929688 2309.171875 C 1669.769531 2309.171875 1685.03125 2293.898438 1685.03125 2275.050781 C 1685.03125 2243.121094 1659.050781 2217.171875 1627.128906 2217.171875 L 1614.648438 2217.171875 L 1614.648438 2193.589844 C 1614.648438 2174.761719 1599.378906 2159.488281 1580.539062 2159.488281 C 1561.710938 2159.488281 1546.429688 2174.761719 1546.429688 2193.589844 L 1546.429688 2217.171875 L 1533.921875 2217.171875 C 1501.988281 2217.171875 1476.03125 2243.140625 1476.03125 2275.050781 L 1476.03125 2368.28125 C 1476.03125 2400.21875 1502.011719 2426.160156 1533.921875 2426.160156 L 1616.820312 2426.179688 L 1616.820312 2498.730469 L 1581.710938 2498.730469 L 1580.539062 2498.710938 L 1579.371094 2498.730469 L 1542.679688 2498.730469 C 1538.289062 2484.941406 1525.371094 2474.949219 1510.160156 2474.949219 C 1491.308594 2474.949219 1476.050781 2490.21875 1476.050781 2509.070312 C 1476.050781 2541.011719 1502.039062 2566.949219 1533.949219 2566.949219 L 1546.429688 2566.949219 L 1546.429688 2590.550781 C 1546.429688 2609.398438 1561.710938 2624.671875 1580.539062 2624.671875 C 1599.378906 2624.671875 1614.648438 2609.421875 1614.648438 2590.550781 L 1614.648438 2566.949219 Z M 1276.378906 2720.011719 C 1284.238281 2720.011719 1292.050781 2722.710938 1298.339844 2728.011719 C 1337.921875 2761.300781 1382.460938 2787.050781 1430.730469 2804.558594 C 1444.21875 2809.460938 1453.210938 2822.269531 1453.210938 2836.628906 L 1453.210938 3075.421875 C 1453.210938 3093.191406 1467.648438 3107.648438 1485.390625 3107.648438 L 1675.730469 3107.648438 C 1693.480469 3107.648438 1707.910156 3093.191406 1707.910156 3075.421875 L 1707.910156 2836.628906 C 1707.910156 2822.269531 1716.890625 2809.460938 1730.390625 2804.578125 C 1778.628906 2787.070312 1823.160156 2761.300781 1862.761719 2728.03125 C 1873.761719 2718.808594 1889.328125 2717.449219 1901.761719 2724.578125 L 2108.691406 2844.070312 C 2123.679688 2852.738281 2144.210938 2847.011719 2152.679688 2832.289062 L 2247.839844 2667.449219 C 2256.730469 2652.089844 2251.449219 2632.351562 2236.058594 2623.449219 L 2029.230469 2504.070312 C 2016.808594 2496.878906 2010.179688 2482.71875 2012.699219 2468.589844 C 2017.109375 2443.53125 2019.359375 2417.808594 2019.359375 2392.078125 C 2019.359375 2366.410156 2017.109375 2340.671875 2012.71875 2315.53125 C 2010.230469 2301.449219 2016.828125 2287.28125 2029.238281 2280.109375 L 2236.078125 2160.699219 C 2251.449219 2151.789062 2256.75 2132.070312 2247.859375 2116.691406 L 2152.679688 1951.890625 C 2144.191406 1937.171875 2123.660156 1931.460938 2108.730469 1940.101562 L 1901.789062 2059.558594 C 1889.339844 2066.730469 1873.761719 2065.328125 1862.789062 2056.109375 C 1823.21875 2022.820312 1778.671875 1997.078125 1730.421875 1979.558594 C 1716.929688 1974.679688 1707.941406 1961.851562 1707.941406 1947.488281 L 1707.941406 1708.710938 C 1707.941406 1690.949219 1693.511719 1676.53125 1675.75 1676.53125 L 1485.398438 1676.539062 C 1467.648438 1676.539062 1453.210938 1690.96875 1453.210938 1708.71875 L 1453.210938 1947.488281 C 1453.210938 1961.828125 1444.238281 1974.660156 1430.761719 1979.558594 C 1382.480469 1997.101562 1337.941406 2022.878906 1298.371094 2056.128906 C 1287.390625 2065.371094 1271.820312 2066.730469 1259.371094 2059.558594 L 1052.460938 1940.089844 C 1037.53125 1931.460938 1016.96875 1937.128906 1008.460938 1951.871094 L 913.277344 2116.691406 C 904.410156 2132.070312 909.691406 2151.789062 925.074219 2160.679688 L 1131.921875 2280.109375 C 1144.320312 2287.300781 1150.929688 2301.449219 1148.449219 2315.53125 C 1144.03125 2340.769531 1141.78125 2366.511719 1141.78125 2392.058594 C 1141.78125 2417.691406 1144.011719 2443.441406 1148.441406 2468.589844 C 1150.921875 2482.699219 1144.300781 2496.878906 1131.898438 2504.03125 L 925.054688 2623.46875 C 909.691406 2632.351562 904.410156 2652.070312 913.277344 2667.449219 L 1008.429688 2832.261719 C 1016.921875 2846.96875 1037.480469 2852.640625 1052.429688 2844.058594 L 1259.351562 2724.578125 C 1264.648438 2721.53125 1270.53125 2720.011719 1276.378906 2720.011719 Z M 1675.699219 3175.851562 C 1731.058594 3175.851562 1776.109375 3130.769531 1776.089844 3075.421875 L 1776.078125 2859.910156 C 1815.890625 2843.25 1853.300781 2821.601562 1887.789062 2795.300781 L 2074.53125 2903.109375 C 2089.71875 2911.859375 2107.039062 2916.53125 2124.570312 2916.488281 C 2160.460938 2916.488281 2193.828125 2897.28125 2211.699219 2866.351562 L 2306.878906 2701.511719 C 2334.519531 2653.589844 2318.011719 2592.050781 2270.101562 2564.371094 L 2083.378906 2456.578125 C 2086.121094 2435.238281 2087.480469 2413.609375 2087.480469 2392.039062 C 2087.480469 2370.46875 2086.121094 2348.859375 2083.421875 2327.53125 L 2270.121094 2219.710938 C 2318.050781 2192.019531 2334.519531 2130.480469 2306.878906 2082.570312 L 2211.699219 1917.75 C 2193.828125 1886.808594 2160.460938 1867.578125 2124.570312 1867.578125 C 2107.019531 1867.578125 2089.71875 1872.230469 2074.53125 1881 L 1887.808594 1988.820312 C 1853.351562 1962.480469 1815.929688 1940.851562 1776.101562 1924.199219 L 1776.101562 1708.691406 C 1776.101562 1653.328125 1731.058594 1608.289062 1675.699219 1608.289062 L 1485.359375 1608.300781 C 1430 1608.300781 1384.949219 1653.351562 1384.949219 1708.710938 L 1384.949219 1924.199219 C 1345.140625 1940.859375 1307.710938 1962.5 1273.261719 1988.820312 L 1086.519531 1881 C 1071.339844 1872.25 1054.039062 1867.589844 1036.488281 1867.589844 C 1000.601562 1867.589844 967.203125 1886.820312 949.355469 1917.761719 L 854.179688 2082.609375 C 826.539062 2130.539062 843.019531 2192.058594 890.945312 2219.75 L 1077.671875 2327.550781 C 1074.960938 2348.980469 1073.570312 2370.570312 1073.570312 2392.058594 C 1073.570312 2413.609375 1074.949219 2435.21875 1077.671875 2456.601562 L 890.976562 2564.390625 C 843.019531 2592.058594 826.539062 2653.601562 854.207031 2701.550781 L 949.382812 2866.351562 C 967.25 2897.320312 1000.648438 2916.53125 1036.539062 2916.53125 C 1054.039062 2916.53125 1071.339844 2911.921875 1086.53125 2903.148438 L 1273.261719 2795.320312 C 1307.710938 2821.640625 1345.128906 2843.289062 1384.960938 2859.949219 L 1384.960938 3075.421875 C 1384.960938 3130.789062 1430.011719 3175.851562 1485.359375 3175.851562 Z M 2401.480469 1464.410156 L 2401.480469 1471.941406 C 2401.480469 1490.769531 2416.738281 1506.050781 2435.578125 1506.050781 C 2454.429688 1506.050781 2469.691406 1490.761719 2469.691406 1471.941406 L 2469.691406 1464.410156 C 2497.75 1464.140625 2520.441406 1441.25 2520.421875 1413.191406 L 2520.421875 1345.960938 C 2520.421875 1317.730469 2497.46875 1294.730469 2469.179688 1294.730469 L 2418.929688 1294.730469 L 2418.929688 1261.449219 L 2456.710938 1261.449219 C 2462.601562 1271.679688 2473.628906 1278.578125 2486.320312 1278.578125 C 2505.148438 1278.578125 2520.421875 1263.308594 2520.421875 1244.480469 C 2520.421875 1216.398438 2497.75 1193.511719 2469.691406 1193.238281 L 2469.691406 1185.71875 C 2469.691406 1166.878906 2454.410156 1151.609375 2435.578125 1151.609375 C 2416.738281 1151.609375 2401.480469 1166.878906 2401.480469 1185.71875 L 2401.480469 1193.238281 C 2373.449219 1193.5 2350.730469 1216.371094 2350.730469 1244.480469 L 2350.730469 1311.671875 C 2350.730469 1339.941406 2373.699219 1362.949219 2401.96875 1362.949219 L 2452.21875 1362.929688 L 2452.21875 1396.210938 L 2414.460938 1396.210938 C 2408.570312 1385.980469 2397.519531 1379.078125 2384.851562 1379.078125 C 2366.019531 1379.078125 2350.730469 1394.351562 2350.730469 1413.191406 C 2350.730469 1441.261719 2373.429688 1464.148438 2401.480469 1464.410156 Z M 2435.578125 1107.058594 C 2313.300781 1107.058594 2213.78125 1206.539062 2213.78125 1328.828125 C 2213.78125 1451.109375 2313.28125 1550.601562 2435.578125 1550.601562 C 2557.890625 1550.601562 2657.390625 1451.121094 2657.390625 1328.828125 C 2657.390625 1206.539062 2557.871094 1107.058594 2435.578125 1107.058594 Z M 2435.578125 1618.828125 C 2595.488281 1618.828125 2725.558594 1488.71875 2725.558594 1328.839844 C 2725.558594 1168.921875 2595.488281 1038.820312 2435.578125 1038.820312 C 2275.660156 1038.820312 2145.589844 1168.929688 2145.589844 1328.839844 C 2145.589844 1488.71875 2275.660156 1618.828125 2435.578125 1618.828125 Z M 2193.140625 1583.289062 C 2201 1583.289062 2208.78125 1586.019531 2215.089844 1591.289062 C 2246.011719 1617.289062 2280.800781 1637.410156 2318.539062 1651.109375 C 2332.019531 1656.019531 2340.980469 1668.839844 2340.980469 1683.171875 L 2340.980469 1873.5 C 2340.980469 1883.660156 2349.570312 1892.25 2359.730469 1892.25 L 2511.460938 1892.25 C 2521.601562 1892.25 2530.191406 1883.671875 2530.191406 1873.511719 L 2530.191406 1683.171875 C 2530.191406 1668.820312 2539.148438 1656.019531 2552.628906 1651.121094 C 2590.328125 1637.410156 2625.140625 1617.300781 2656.089844 1591.300781 C 2667.058594 1582.058594 2682.679688 1580.71875 2695.089844 1587.859375 L 2860.011719 1683.078125 C 2868.699219 1688.140625 2880.710938 1684.769531 2885.640625 1676.238281 L 2961.5 1544.851562 C 2964.851562 1539.050781 2964.058594 1533.449219 2963.308594 1530.621094 C 2962.539062 1527.808594 2960.421875 1522.589844 2954.628906 1519.25 L 2789.761719 1424.050781 C 2777.351562 1416.878906 2770.730469 1402.738281 2773.21875 1388.589844 C 2776.679688 1368.960938 2778.421875 1348.839844 2778.421875 1328.789062 C 2778.421875 1308.75 2776.660156 1288.628906 2773.21875 1268.988281 C 2770.75 1254.890625 2777.351562 1240.710938 2789.761719 1233.550781 L 2954.628906 1138.359375 C 2963.429688 1133.28125 2966.558594 1121.539062 2961.5 1112.761719 L 2885.640625 981.359375 C 2880.710938 972.820312 2868.78125 969.511719 2860.050781 974.5 L 2695.089844 1069.75 C 2682.679688 1076.910156 2667.058594 1075.550781 2656.089844 1066.308594 C 2625.179688 1040.320312 2590.390625 1020.199219 2552.648438 1006.480469 C 2539.171875 1001.570312 2530.210938 988.75 2530.210938 974.429688 L 2530.210938 784.078125 C 2530.210938 773.929688 2521.621094 765.339844 2511.460938 765.339844 L 2359.730469 765.339844 C 2349.570312 765.339844 2340.980469 773.910156 2340.980469 784.070312 L 2340.980469 974.410156 C 2340.980469 988.769531 2332.019531 1001.589844 2318.539062 1006.46875 C 2280.820312 1020.160156 2246.011719 1040.289062 2215.101562 1066.289062 C 2204.109375 1075.550781 2188.53125 1076.890625 2176.101562 1069.71875 L 2011.140625 974.5 C 2002.488281 969.46875 1990.460938 972.820312 1985.550781 981.351562 L 1909.691406 1112.738281 C 1904.621094 1121.550781 1907.769531 1133.261719 1916.558594 1138.359375 L 2081.429688 1233.539062 C 2093.839844 1240.710938 2100.460938 1254.859375 2097.949219 1268.988281 C 2094.511719 1288.621094 2092.75 1308.738281 2092.75 1328.808594 C 2092.75 1348.949219 2094.511719 1369.039062 2097.949219 1388.570312 C 2100.460938 1402.710938 2093.859375 1416.871094 2081.429688 1424.03125 L 1916.558594 1519.230469 C 1910.769531 1522.589844 1908.640625 1527.800781 1907.871094 1530.609375 C 1907.121094 1533.441406 1906.351562 1539.03125 1909.671875 1544.808594 L 1985.53125 1676.199219 C 1990.460938 1684.71875 2002.429688 1688.109375 2011.140625 1683.050781 L 2176.078125 1587.820312 C 2181.378906 1584.800781 2187.269531 1583.289062 2193.140625 1583.289062 Z M 2511.441406 1960.5 L 2359.71875 1960.5 C 2311.769531 1960.5 2272.761719 1921.488281 2272.761719 1873.519531 L 2272.761719 1706.328125 C 2243.46875 1693.671875 2215.789062 1677.679688 2190.128906 1658.53125 L 2045.238281 1742.191406 C 2032.078125 1749.789062 2017.089844 1753.800781 2001.921875 1753.800781 C 1970.859375 1753.800781 1941.921875 1737.160156 1926.449219 1710.359375 L 1850.601562 1578.960938 C 1839 1558.898438 1835.949219 1535.480469 1841.96875 1513 C 1847.980469 1490.53125 1862.351562 1471.761719 1882.429688 1460.179688 L 2027.289062 1376.539062 C 2025.460938 1360.761719 2024.539062 1344.808594 2024.539062 1328.828125 C 2024.539062 1312.890625 2025.460938 1296.921875 2027.308594 1281.101562 L 1882.429688 1197.449219 C 1840.910156 1173.480469 1826.621094 1120.179688 1850.601562 1078.671875 L 1926.449219 947.269531 C 1941.921875 920.46875 1970.820312 903.820312 2001.878906 903.820312 C 2017.089844 903.820312 2032.058594 907.851562 2045.238281 915.429688 L 2190.128906 999.078125 C 2215.808594 979.910156 2243.46875 963.910156 2272.78125 951.289062 L 2272.78125 784.089844 C 2272.78125 736.128906 2311.789062 697.128906 2359.71875 697.128906 L 2511.441406 697.128906 C 2559.378906 697.128906 2598.390625 736.128906 2598.390625 784.089844 L 2598.390625 951.289062 C 2627.699219 963.929688 2655.339844 979.941406 2681.011719 999.078125 L 2825.910156 915.429688 C 2839.03125 907.839844 2854.039062 903.820312 2869.25 903.820312 C 2900.308594 903.820312 2929.230469 920.480469 2944.699219 947.269531 L 3020.539062 1078.671875 C 3044.488281 1120.160156 3030.230469 1173.449219 2988.71875 1197.449219 L 2843.839844 1281.101562 C 2845.691406 1296.910156 2846.601562 1312.890625 2846.601562 1328.808594 C 2846.601562 1344.738281 2845.691406 1360.699219 2843.839844 1376.539062 L 2988.699219 1460.179688 C 3008.78125 1471.769531 3023.140625 1490.539062 3029.171875 1512.980469 C 3035.210938 1535.46875 3032.140625 1558.890625 3020.558594 1578.96875 L 2944.699219 1710.351562 C 2929.230469 1737.148438 2900.308594 1753.78125 2869.230469 1753.78125 C 2854.039062 1753.78125 2839.070312 1749.761719 2825.910156 1742.179688 L 2681.03125 1658.53125 C 2655.320312 1677.699219 2627.660156 1693.671875 2598.371094 1706.328125 L 2598.371094 1873.5 C 2598.390625 1921.488281 2559.378906 1960.5 2511.441406 1960.5 Z M 1580.539062 2735.410156 C 1391.230469 2735.410156 1237.199219 2581.410156 1237.199219 2392.078125 C 1237.199219 2202.75 1391.199219 2048.75 1580.539062 2048.75 C 1769.878906 2048.75 1923.878906 2202.75 1923.878906 2392.078125 C 1923.878906 2581.410156 1769.859375 2735.410156 1580.539062 2735.410156 "/>
    </clipPath>
    <linearGradient id="linear-pattern-1" gradientUnits="userSpaceOnUse" x1="-0.0130519" y1="0" x2="1.011343" y2="0" gradientTransform="matrix(2165.13, 0, 0, 2165.13, 854.8, 1936.49)">
      <stop offset="0" stop-color="rgb(0%, 16.470337%, 22.3526%)" stop-opacity="1"/>
      <stop offset="0.015625" stop-color="rgb(0%, 16.523743%, 22.406006%)" stop-opacity="1"/>
      <stop offset="0.0234375" stop-color="rgb(0%, 16.720581%, 22.605896%)" stop-opacity="1"/>
      <stop offset="0.03125" stop-color="rgb(0%, 17.008972%, 22.897339%)" stop-opacity="1"/>
      <stop offset="0.0390625" stop-color="rgb(0%, 17.297363%, 23.188782%)" stop-opacity="1"/>
      <stop offset="0.046875" stop-color="rgb(0%, 17.585754%, 23.480225%)" stop-opacity="1"/>
      <stop offset="0.0546875" stop-color="rgb(0%, 17.875671%, 23.773193%)" stop-opacity="1"/>
      <stop offset="0.0625" stop-color="rgb(0%, 18.164062%, 24.064636%)" stop-opacity="1"/>
      <stop offset="0.0703125" stop-color="rgb(0%, 18.452454%, 24.356079%)" stop-opacity="1"/>
      <stop offset="0.078125" stop-color="rgb(0%, 18.740845%, 24.649048%)" stop-opacity="1"/>
      <stop offset="0.0859375" stop-color="rgb(0%, 19.030762%, 24.940491%)" stop-opacity="1"/>
      <stop offset="0.09375" stop-color="rgb(0%, 19.319153%, 25.231934%)" stop-opacity="1"/>
      <stop offset="0.101563" stop-color="rgb(0%, 19.607544%, 25.523376%)" stop-opacity="1"/>
      <stop offset="0.109375" stop-color="rgb(0%, 19.895935%, 25.816345%)" stop-opacity="1"/>
      <stop offset="0.117188" stop-color="rgb(0%, 20.184326%, 26.107788%)" stop-opacity="1"/>
      <stop offset="0.125" stop-color="rgb(0%, 20.474243%, 26.399231%)" stop-opacity="1"/>
      <stop offset="0.132812" stop-color="rgb(0%, 20.762634%, 26.6922%)" stop-opacity="1"/>
      <stop offset="0.140625" stop-color="rgb(0%, 21.051025%, 26.983643%)" stop-opacity="1"/>
      <stop offset="0.148438" stop-color="rgb(0%, 21.339417%, 27.275085%)" stop-opacity="1"/>
      <stop offset="0.15625" stop-color="rgb(0%, 21.629333%, 27.566528%)" stop-opacity="1"/>
      <stop offset="0.164062" stop-color="rgb(0%, 21.917725%, 27.859497%)" stop-opacity="1"/>
      <stop offset="0.171875" stop-color="rgb(0%, 22.206116%, 28.15094%)" stop-opacity="1"/>
      <stop offset="0.179688" stop-color="rgb(0%, 22.494507%, 28.442383%)" stop-opacity="1"/>
      <stop offset="0.1875" stop-color="rgb(0%, 22.784424%, 28.735352%)" stop-opacity="1"/>
      <stop offset="0.195313" stop-color="rgb(0%, 23.072815%, 29.026794%)" stop-opacity="1"/>
      <stop offset="0.203125" stop-color="rgb(0%, 23.361206%, 29.318237%)" stop-opacity="1"/>
      <stop offset="0.210938" stop-color="rgb(0%, 23.649597%, 29.60968%)" stop-opacity="1"/>
      <stop offset="0.21875" stop-color="rgb(0%, 23.937988%, 29.902649%)" stop-opacity="1"/>
      <stop offset="0.226562" stop-color="rgb(0%, 24.227905%, 30.194092%)" stop-opacity="1"/>
      <stop offset="0.234375" stop-color="rgb(0%, 24.516296%, 30.485535%)" stop-opacity="1"/>
      <stop offset="0.242188" stop-color="rgb(0%, 24.804688%, 30.778503%)" stop-opacity="1"/>
      <stop offset="0.25" stop-color="rgb(0%, 25.093079%, 31.069946%)" stop-opacity="1"/>
      <stop offset="0.257812" stop-color="rgb(0%, 25.382996%, 31.361389%)" stop-opacity="1"/>
      <stop offset="0.265625" stop-color="rgb(0%, 25.671387%, 31.652832%)" stop-opacity="1"/>
      <stop offset="0.273438" stop-color="rgb(0%, 25.959778%, 31.945801%)" stop-opacity="1"/>
      <stop offset="0.28125" stop-color="rgb(0%, 26.248169%, 32.237244%)" stop-opacity="1"/>
      <stop offset="0.289062" stop-color="rgb(0%, 26.53656%, 32.528687%)" stop-opacity="1"/>
      <stop offset="0.296875" stop-color="rgb(0%, 26.826477%, 32.821655%)" stop-opacity="1"/>
      <stop offset="0.304687" stop-color="rgb(0%, 27.114868%, 33.113098%)" stop-opacity="1"/>
      <stop offset="0.3125" stop-color="rgb(0%, 27.403259%, 33.404541%)" stop-opacity="1"/>
      <stop offset="0.320312" stop-color="rgb(0%, 27.69165%, 33.695984%)" stop-opacity="1"/>
      <stop offset="0.328125" stop-color="rgb(0%, 27.981567%, 33.988953%)" stop-opacity="1"/>
      <stop offset="0.335938" stop-color="rgb(0%, 28.269958%, 34.280396%)" stop-opacity="1"/>
      <stop offset="0.34375" stop-color="rgb(0%, 28.55835%, 34.571838%)" stop-opacity="1"/>
      <stop offset="0.351563" stop-color="rgb(0%, 28.846741%, 34.864807%)" stop-opacity="1"/>
      <stop offset="0.359375" stop-color="rgb(0%, 29.136658%, 35.15625%)" stop-opacity="1"/>
      <stop offset="0.367188" stop-color="rgb(0%, 29.425049%, 35.447693%)" stop-opacity="1"/>
      <stop offset="0.375" stop-color="rgb(0%, 29.71344%, 35.739136%)" stop-opacity="1"/>
      <stop offset="0.382813" stop-color="rgb(0%, 30.001831%, 36.032104%)" stop-opacity="1"/>
      <stop offset="0.390625" stop-color="rgb(0%, 30.290222%, 36.323547%)" stop-opacity="1"/>
      <stop offset="0.398438" stop-color="rgb(0%, 30.580139%, 36.61499%)" stop-opacity="1"/>
      <stop offset="0.40625" stop-color="rgb(0%, 30.86853%, 36.907959%)" stop-opacity="1"/>
      <stop offset="0.414062" stop-color="rgb(0%, 31.156921%, 37.199402%)" stop-opacity="1"/>
      <stop offset="0.421875" stop-color="rgb(0%, 31.445312%, 37.490845%)" stop-opacity="1"/>
      <stop offset="0.429688" stop-color="rgb(0%, 31.735229%, 37.782288%)" stop-opacity="1"/>
      <stop offset="0.4375" stop-color="rgb(0%, 32.023621%, 38.075256%)" stop-opacity="1"/>
      <stop offset="0.445312" stop-color="rgb(0%, 32.312012%, 38.366699%)" stop-opacity="1"/>
      <stop offset="0.453125" stop-color="rgb(0%, 32.600403%, 38.658142%)" stop-opacity="1"/>
      <stop offset="0.460938" stop-color="rgb(0%, 32.89032%, 38.951111%)" stop-opacity="1"/>
      <stop offset="0.46875" stop-color="rgb(0%, 33.178711%, 39.242554%)" stop-opacity="1"/>
      <stop offset="0.476562" stop-color="rgb(0%, 33.467102%, 39.533997%)" stop-opacity="1"/>
      <stop offset="0.484375" stop-color="rgb(0%, 33.755493%, 39.825439%)" stop-opacity="1"/>
      <stop offset="0.492187" stop-color="rgb(0%, 34.043884%, 40.118408%)" stop-opacity="1"/>
      <stop offset="0.5" stop-color="rgb(0%, 34.333801%, 40.409851%)" stop-opacity="1"/>
      <stop offset="0.507812" stop-color="rgb(0%, 34.622192%, 40.701294%)" stop-opacity="1"/>
      <stop offset="0.515625" stop-color="rgb(0%, 34.910583%, 40.994263%)" stop-opacity="1"/>
      <stop offset="0.523438" stop-color="rgb(0%, 35.198975%, 41.285706%)" stop-opacity="1"/>
      <stop offset="0.53125" stop-color="rgb(0%, 35.488892%, 41.577148%)" stop-opacity="1"/>
      <stop offset="0.539062" stop-color="rgb(0%, 35.777283%, 41.868591%)" stop-opacity="1"/>
      <stop offset="0.546875" stop-color="rgb(0%, 36.065674%, 42.16156%)" stop-opacity="1"/>
      <stop offset="0.554688" stop-color="rgb(0%, 36.354065%, 42.453003%)" stop-opacity="1"/>
      <stop offset="0.5625" stop-color="rgb(0%, 36.642456%, 42.744446%)" stop-opacity="1"/>
      <stop offset="0.570312" stop-color="rgb(0%, 36.932373%, 43.037415%)" stop-opacity="1"/>
      <stop offset="0.578125" stop-color="rgb(0%, 37.220764%, 43.328857%)" stop-opacity="1"/>
      <stop offset="0.585937" stop-color="rgb(0%, 37.509155%, 43.6203%)" stop-opacity="1"/>
      <stop offset="0.59375" stop-color="rgb(0%, 37.797546%, 43.911743%)" stop-opacity="1"/>
      <stop offset="0.601562" stop-color="rgb(0%, 38.087463%, 44.204712%)" stop-opacity="1"/>
      <stop offset="0.609375" stop-color="rgb(0%, 38.375854%, 44.496155%)" stop-opacity="1"/>
      <stop offset="0.617187" stop-color="rgb(0%, 38.664246%, 44.787598%)" stop-opacity="1"/>
      <stop offset="0.625" stop-color="rgb(0%, 38.952637%, 45.080566%)" stop-opacity="1"/>
      <stop offset="0.632812" stop-color="rgb(0%, 39.242554%, 45.372009%)" stop-opacity="1"/>
      <stop offset="0.640625" stop-color="rgb(0%, 39.530945%, 45.663452%)" stop-opacity="1"/>
      <stop offset="0.648438" stop-color="rgb(0%, 39.819336%, 45.954895%)" stop-opacity="1"/>
      <stop offset="0.65625" stop-color="rgb(0%, 40.107727%, 46.247864%)" stop-opacity="1"/>
      <stop offset="0.664062" stop-color="rgb(0%, 40.396118%, 46.539307%)" stop-opacity="1"/>
      <stop offset="0.671875" stop-color="rgb(0%, 40.686035%, 46.83075%)" stop-opacity="1"/>
      <stop offset="0.679688" stop-color="rgb(0%, 40.974426%, 47.123718%)" stop-opacity="1"/>
      <stop offset="0.6875" stop-color="rgb(0%, 41.262817%, 47.415161%)" stop-opacity="1"/>
      <stop offset="0.695312" stop-color="rgb(0%, 41.551208%, 47.706604%)" stop-opacity="1"/>
      <stop offset="0.703125" stop-color="rgb(0%, 41.841125%, 47.998047%)" stop-opacity="1"/>
      <stop offset="0.710938" stop-color="rgb(0%, 42.129517%, 48.291016%)" stop-opacity="1"/>
      <stop offset="0.71875" stop-color="rgb(0%, 42.417908%, 48.582458%)" stop-opacity="1"/>
      <stop offset="0.726563" stop-color="rgb(0%, 42.706299%, 48.873901%)" stop-opacity="1"/>
      <stop offset="0.734375" stop-color="rgb(0%, 42.99469%, 49.16687%)" stop-opacity="1"/>
      <stop offset="0.742188" stop-color="rgb(0%, 43.284607%, 49.458313%)" stop-opacity="1"/>
      <stop offset="0.75" stop-color="rgb(0%, 43.572998%, 49.749756%)" stop-opacity="1"/>
      <stop offset="0.757813" stop-color="rgb(0%, 43.861389%, 50.041199%)" stop-opacity="1"/>
      <stop offset="0.765625" stop-color="rgb(0%, 44.14978%, 50.334167%)" stop-opacity="1"/>
      <stop offset="0.773438" stop-color="rgb(0%, 44.439697%, 50.62561%)" stop-opacity="1"/>
      <stop offset="0.78125" stop-color="rgb(0%, 44.728088%, 50.917053%)" stop-opacity="1"/>
      <stop offset="0.789063" stop-color="rgb(0%, 45.016479%, 51.210022%)" stop-opacity="1"/>
      <stop offset="0.796875" stop-color="rgb(0%, 45.304871%, 51.501465%)" stop-opacity="1"/>
      <stop offset="0.804688" stop-color="rgb(0%, 45.594788%, 51.792908%)" stop-opacity="1"/>
      <stop offset="0.8125" stop-color="rgb(0%, 45.883179%, 52.084351%)" stop-opacity="1"/>
      <stop offset="0.820312" stop-color="rgb(0%, 46.17157%, 52.377319%)" stop-opacity="1"/>
      <stop offset="0.828125" stop-color="rgb(0%, 46.459961%, 52.668762%)" stop-opacity="1"/>
      <stop offset="0.835938" stop-color="rgb(0%, 46.748352%, 52.960205%)" stop-opacity="1"/>
      <stop offset="0.84375" stop-color="rgb(0%, 47.038269%, 53.251648%)" stop-opacity="1"/>
      <stop offset="0.851562" stop-color="rgb(0%, 47.32666%, 53.544617%)" stop-opacity="1"/>
      <stop offset="0.859375" stop-color="rgb(0%, 47.615051%, 53.83606%)" stop-opacity="1"/>
      <stop offset="0.867188" stop-color="rgb(0%, 47.903442%, 54.127502%)" stop-opacity="1"/>
      <stop offset="0.875" stop-color="rgb(0%, 48.193359%, 54.420471%)" stop-opacity="1"/>
      <stop offset="0.882813" stop-color="rgb(0%, 48.48175%, 54.711914%)" stop-opacity="1"/>
      <stop offset="0.890625" stop-color="rgb(0%, 48.770142%, 55.003357%)" stop-opacity="1"/>
      <stop offset="0.898438" stop-color="rgb(0%, 49.058533%, 55.2948%)" stop-opacity="1"/>
      <stop offset="0.90625" stop-color="rgb(0%, 49.346924%, 55.587769%)" stop-opacity="1"/>
      <stop offset="0.914062" stop-color="rgb(0%, 49.636841%, 55.879211%)" stop-opacity="1"/>
      <stop offset="0.921875" stop-color="rgb(0%, 49.925232%, 56.170654%)" stop-opacity="1"/>
      <stop offset="0.929688" stop-color="rgb(0%, 50.213623%, 56.463623%)" stop-opacity="1"/>
      <stop offset="0.9375" stop-color="rgb(0%, 50.502014%, 56.755066%)" stop-opacity="1"/>
      <stop offset="0.945312" stop-color="rgb(0%, 50.791931%, 57.046509%)" stop-opacity="1"/>
      <stop offset="0.953125" stop-color="rgb(0%, 51.080322%, 57.337952%)" stop-opacity="1"/>
      <stop offset="0.960938" stop-color="rgb(0%, 51.368713%, 57.63092%)" stop-opacity="1"/>
      <stop offset="0.96875" stop-color="rgb(0%, 51.657104%, 57.922363%)" stop-opacity="1"/>
      <stop offset="0.976562" stop-color="rgb(0%, 51.947021%, 58.213806%)" stop-opacity="1"/>
      <stop offset="0.984375" stop-color="rgb(0%, 52.235413%, 58.506775%)" stop-opacity="1"/>
      <stop offset="1" stop-color="rgb(0%, 52.464294%, 58.737183%)" stop-opacity="1"/>
    </linearGradient>
  </defs>
  <g clip-path="url(#clip-0)">
    <g clip-path="url(#clip-1)">
      <path fill-rule="nonzero" fill="url(#linear-pattern-0)" d="M 0 0 L 0 3872.96875 L 3872.96875 3872.96875 L 3872.96875 0 Z M 0 0 "/>
    </g>
  </g>
  <path fill-rule="evenodd" fill="rgb(100%, 100%, 100%)" fill-opacity="1" d="M 1033.089844 311.910156 L 2839.878906 311.910156 C 3236.539062 311.910156 3561.058594 636.441406 3561.058594 1033.089844 L 3561.058594 2839.878906 C 3561.058594 3236.539062 3236.539062 3561.058594 2839.878906 3561.058594 L 1033.089844 3561.058594 C 636.4375 3561.058594 311.914062 3236.539062 311.914062 2839.878906 L 311.914062 1033.089844 C 311.914062 636.441406 636.4375 311.910156 1033.089844 311.910156 "/>
  <g clip-path="url(#clip-2)">
    <g clip-path="url(#clip-3)">
      <path fill-rule="nonzero" fill="url(#linear-pattern-1)" d="M 826.539062 697.128906 L 826.539062 3175.851562 L 3044.488281 3175.851562 L 3044.488281 697.128906 Z M 826.539062 697.128906 "/>
    </g>
  </g>
</svg>